<?xml version="1.0" standalone="no"?><!DOCTYPE svg PUBLIC "-//W3C//DTD SVG 1.1//EN" "http://www.w3.org/Graphics/SVG/1.1/DTD/svg11.dtd"><svg t="1730367137277" class="icon" viewBox="0 0 1024 1024" version="1.1" xmlns="http://www.w3.org/2000/svg" p-id="6405" xmlns:xlink="http://www.w3.org/1999/xlink" width="256" height="256"><path d="M512 86.216704C257.327104 83.382272 83.386368 257.327104 86.2208 512 83.386368 766.672896 257.327104 940.617728 512 937.7792c254.672896 2.834432 428.617728-171.106304 425.7792-425.783296 2.838528-254.672896-171.106304-428.613632-425.7792-425.7792zM380.452864 811.606016c-80.494592-32.301056-141.135872-95.04768-170.98752-177.0496-2.3552-14.925824-12.570624-91.971584 57.081856-92.192768 52.707328-0.196608 105.926656 27.815936 140.828672 77.910016 28.520448 41.496576 76.316672 204.648448-26.923008 191.332352z m-67.678208-373.239808C183.607296 475.172864 223.584256 360.189952 227.766272 348.16c52.719616-99.831808 159.137792-161.173504 285.396992-161.255424 141.283328-0.090112 256.741376 76.689408 301.924352 197.558272a315.67872 315.67872 0 0 0-3.362816-6.467584c17.772544 59.37152-29.233152 90.836992-99.262464 61.599744-194.719744-79.642624-305.262592-27.844608-399.68768-1.2288z m365.367296 358.117376c0.311296-0.212992 0.63488-0.413696 0.950272-0.630784-143.355904 39.38304-114.03264-136.372224-85.082112-178.192384 33.603584-48.10752 83.779584-78.905344 141.463552-78.934016 100.667392-0.086016 80.396288 96.489472 80.62976 96.342016 0 0 0.417792-0.589824 1.134592-1.691648-25.64096 71.176192-74.231808 128.110592-139.096064 163.106816z" fill="#2c2c2c" p-id="6406"></path></svg>